<?xml version="1.0" encoding="UTF-8" standalone="no"?>
<!DOCTYPE svg PUBLIC "-//W3C//DTD SVG 1.1//EN" "http://www.w3.org/Graphics/SVG/1.1/DTD/svg11.dtd">
<svg viewBox="0 0 6000 4000" fill="currentColor" version="1.1" xmlns="http://www.w3.org/2000/svg" xmlns:xlink="http://www.w3.org/1999/xlink" xml:space="preserve" xmlns:serif="http://www.serif.com/" style="fill-rule:evenodd;clip-rule:evenodd;stroke-linejoin:round;stroke-miterlimit:2;">
    <g id="Artboard11" serif:id="Artboard1">
        <g transform="matrix(6.35284,0,0,6.35284,597.829,1244.39)">
            <g transform="matrix(1,0,0,1,737.335,85.2301)">
                <path d="M0,109.901C-2.688,74.811 -6.544,25.464 -8.893,-4.968C-6.464,-1.603 -6.251,-1.077 -2.62,3.237L-1.849,4.131C1.479,8.072 -6.546,-16.548 -13.58,-34.323L-19.812,-19.284C-18.625,-16.966 -18.101,-14.046 -17.136,-11.333C-15.558,9.772 -9.847,79.382 -6.095,124.996C-5.767,129.114 -5.662,132.052 -5.481,135.312C-5.16,142.834 -5.146,144.224 -4.225,141.733L-4.14,141.481C-2.779,137.674 -1.723,133.231 -0.687,127.554C0.352,122.439 0.284,115.305 0,109.901" style="fill-rule:nonzero;"/>
            </g>
            <g transform="matrix(1,0,0,1,642.932,95.1849)">
                <path d="M0,44.329C-4.963,34.934 -8.504,25.923 -8.735,21.137C-8.743,14.72 -2.718,7.01 1.182,6.459C6.6,5.657 12.547,15.4 15.286,20.896C16.657,23.727 18.198,27.59 17.97,29.9C17.403,31.789 15.02,34.846 11.405,37.496C7.094,40.438 3.33,42.558 0,44.329M61.843,24.252C59.197,-9.06 56.766,-41.544 54.819,-65.129C56.914,-62.197 57.374,-61.477 60.963,-57.658L61.64,-56.993C65.177,-54.115 60.16,-68.687 52.888,-87.089C52.887,-87.105 52.885,-87.123 52.883,-87.139C52.651,-87.718 52.414,-88.302 52.177,-88.883C51.354,-90.949 50.509,-93.055 49.646,-95.185L43.417,-80.146C44.238,-77.946 45.235,-75.311 46.264,-72.265C48.385,-50.469 51.604,-6.441 55.223,39.126C56.305,53.017 56.856,62.64 57.216,69.046C57.067,69.155 56.938,69.253 56.834,69.334C55.951,70.151 53.278,71.401 51.782,72.092C44.659,75.371 35.74,75.965 28.256,73.622C20.741,71.267 13.334,65.328 7.997,57.814C7.401,56.918 6.811,56.006 6.228,55.085C6.995,54.59 7.776,54.075 8.581,53.526C16.972,47.479 19.847,40.597 21.969,30.074C22.648,27.191 22.922,19.078 21.869,14.325C18.838,0.464 9.823,-10.44 4.009,-9.575C-7.058,-7.908 -13.977,9.054 -13.326,23.642C-13.189,31.416 -11.3,40.06 -8.284,48.441C-10.397,49.394 -12.559,50.329 -14.387,51.153C-29.726,58.072 -48.506,67.05 -65.874,85.931C-74.93,95.677 -84.813,108.525 -96.601,117.544C-102.747,122.23 -111.873,126.518 -118.692,125.553C-135.358,123.254 -133.496,100.36 -129.752,88.924C-125.46,75.921 -122.03,71.131 -120.999,68.163L-120.792,67.49C-118.245,60.005 -127.187,72.092 -133.233,91.161C-137.122,103.284 -137.957,135.732 -113.637,139.214C-106.713,139.514 -101.28,136.959 -96.601,133.825C-85.261,126.145 -74.963,112.188 -65.874,102.208C-48.506,83.328 -32.554,74.102 -17.211,67.183C-13.902,65.69 -9.493,63.842 -6.271,62.164C-5.252,61.633 -4.187,61.081 -3.074,60.491C-0.601,65.347 2.188,69.895 5.17,73.848C10.507,81.358 17.918,87.298 25.429,89.652C32.898,91.992 41.799,91.652 48.91,88.377C50.407,87.69 53.123,86.182 54.007,85.365C57.198,82.855 58.834,79.963 59.956,76.563C63.047,68.264 64.791,60.404 61.843,24.252" style="fill-rule:nonzero;"/>
            </g>
            <g transform="matrix(1,0,0,1,561.848,40.8202)">
                <path d="M0,109.909C-2.69,74.82 -6.545,25.474 -8.893,-4.96C-6.467,-1.598 -6.252,-1.07 -2.621,3.245L-1.849,4.136C1.475,8.076 -6.55,-16.544 -13.584,-34.319L-19.812,-19.279C-18.625,-16.962 -18.104,-14.042 -17.14,-11.329C-15.562,9.776 -9.851,79.386 -6.099,125C-5.767,129.118 -5.666,132.056 -5.481,135.32C-5.16,142.842 -5.149,144.228 -4.229,141.737L-4.144,141.489C-2.783,137.678 -1.723,133.239 -0.691,127.558C0.348,122.443 0.28,115.309 0,109.909" style="fill-rule:nonzero;"/>
            </g>
            <g transform="matrix(1,0,0,1,547.805,159.425)">
                <path d="M0,-10.01C0.033,-12.282 -0.152,-14.538 -0.517,-16.79C-2.077,-26.316 -6.618,-35.719 -9.764,-46.1C-5.289,-44.721 -2.486,-43.471 -3.207,-44.6L-3.492,-45.051C-5.898,-48.753 -9.181,-53.604 -12.486,-58.131C-12.489,-58.15 -12.493,-58.168 -12.496,-58.187C-12.78,-58.569 -13.051,-58.92 -13.314,-59.257C-14.996,-61.529 -16.666,-63.686 -18.21,-65.531L-21.836,-48.47C-19.189,-45.783 -19.219,-47.232 -18.332,-41.75C-18.21,-40.982 -18.077,-40.213 -17.929,-39.447C-15.489,-26.729 -9.768,-14.824 -7.347,-7.827C-6.77,-6.177 -6.336,-4.653 -5.95,-3.244C-7.464,-1.411 -10.139,1.416 -14.976,5.187C-37.031,22.149 -60.206,33.914 -85.706,37.432C-104.541,39.306 -113.297,34.694 -118.624,30.462C-127.103,24.444 -135.119,8.096 -132.17,-11.006C-130.536,-22.246 -126.929,-30.466 -126.581,-32.592L-126.459,-33.279C-125.191,-41.107 -133.896,-20.631 -135.611,-11.309C-141.743,19.118 -129.979,38.39 -119.492,46.215C-112.333,51.692 -103.122,55.521 -85.706,53.714C-61.625,50.133 -37.6,38.419 -15.545,21.454C-2.324,11.119 -1.122,1.861 -0.187,-5.909C0.006,-8.11 0.069,-9.376 0,-10.01" style="fill-rule:nonzero;"/>
            </g>
            <g transform="matrix(1,0,0,1,478.862,44.5686)">
                <path d="M0,108.626C-2.644,74.141 -6.464,25.264 -8.795,-4.971C-6.364,-1.603 -6.152,-1.077 -2.521,3.241L-1.748,4.135C1.578,8.072 -6.446,-16.548 -13.48,-34.319L-19.712,-19.28C-18.525,-16.966 -18,-14.046 -17.036,-11.333C-15.476,9.628 -9.795,78.82 -6.099,123.721C-5.767,127.838 -5.666,130.773 -5.481,134.037C-5.16,141.559 -5.148,142.945 -4.229,140.457L-4.144,140.206C-2.783,136.395 -1.723,131.956 -0.691,126.279C0.348,121.163 0.281,114.026 0,108.626" style="fill-rule:nonzero;"/>
            </g>
            <g transform="matrix(0.98011,0.198453,0.198453,-0.98011,340.918,163.866)">
                <path d="M0.68,-0.065C0.678,0.131 0.673,0.363 0.668,0.627L0.68,3.473C0.621,4.584 0.647,5.665 0.647,6.784L0.68,-0.065Z" style="fill-rule:nonzero;"/>
            </g>
            <g transform="matrix(1,0,0,1,282.365,160.993)">
                <path d="M0,-78.484C0.512,-80.449 1.128,-82.685 2.065,-84.687L0,-78.484ZM162.988,-139.547C162.987,-139.563 162.985,-139.58 162.983,-139.596C162.751,-140.176 162.514,-140.76 162.276,-141.341C161.455,-143.407 160.609,-145.513 159.746,-147.643L153.515,-132.603C154.335,-130.404 155.336,-127.769 156.364,-124.723C158.729,-100.665 161.165,-68.15 163.845,-34.688C164.933,-20.84 165.482,-11.196 165.842,-4.77C165.691,-4.659 165.561,-4.562 165.456,-4.48C164.573,-3.659 161.901,-2.41 160.404,-1.722C141.417,7.019 114.15,5.175 97.702,-7.725C87.397,-15.169 71.822,-29.325 59.835,-40.554C37.76,-61.153 31.704,-67.907 4.316,-88.1C4.667,-88.463 5.041,-88.796 5.45,-89.085C23.15,-101.755 114.379,-135.76 133.533,-139.071C137.066,-139.5 137.211,-137.593 136.948,-136.262C136.043,-131.546 123.764,-117.205 114.283,-102.531C108.025,-93.435 105.49,-88.12 103.734,-80.65L103.328,-78.521C101.461,-70.393 105.778,-84.416 120.4,-103.932C136.128,-125.514 148.891,-146.072 142.189,-153.827C140.5,-155.804 137.033,-155.741 134.102,-155.342C114.948,-152.03 23.746,-118.026 6.019,-105.355C-2.837,-98.207 -1,-89.48 -2.028,-75.328L-2.028,-73.298C-1.87,-73.378 -1.725,-73.524 -1.588,-73.715L-1.669,-73.471L-1.772,-73.188C-1.602,-73.062 -1.441,-72.942 -1.272,-72.817C28.45,-43.723 37.932,-31.611 48.484,-15.956C52.325,-10.466 54.686,-5.845 56.183,-2.439C55.891,-2.141 55.587,-1.854 55.259,-1.556C53.696,-0.266 51.988,0.766 50.51,1.538C41.51,6.24 29.024,8.538 19.684,12.523C10.562,16.596 0.331,20.655 -11.859,30.501C-20.235,37.162 -30.529,46.968 -42.316,55.986C-48.462,60.673 -55.71,63.622 -62.445,62.632C-79.085,60.329 -77.182,37.579 -73.53,26.361C-69.368,13.702 -66.042,9.041 -65.025,6.114L-64.818,5.437C-62.271,-2.032 -71.057,9.847 -76.971,28.55C-80.796,40.503 -82.615,71.399 -57.389,76.293C-52.646,77.32 -46.995,75.402 -42.316,72.268C-30.976,64.587 -20.265,53.672 -11.859,46.779C0.331,36.933 7.734,32.63 16.856,28.553C26.196,24.569 38.682,22.269 47.686,17.568C49.161,16.799 50.872,15.765 52.432,14.474C58.167,9.866 60.128,3.908 60.932,-5.912C60.999,-6.408 61.05,-6.922 61.081,-7.46C61.147,-8.314 61.144,-8.874 61.103,-9.42C61.095,-9.477 61.086,-9.525 61.078,-9.576C60.875,-13.11 59.623,-17.718 55.871,-24.651C68.323,-13.33 84.4,0.851 94.875,8.306C111.415,21.058 138.56,23.301 157.532,14.567C159.029,13.879 161.746,12.371 162.629,11.555C165.779,9.078 167.412,6.228 168.532,2.886C171.676,-5.442 173.61,-13.052 170.465,-49.558C168.538,-73.623 166.739,-97.179 164.999,-117.473C167.026,-114.634 167.521,-113.885 171.063,-110.116L171.736,-109.45C175.277,-106.573 170.261,-121.145 162.988,-139.547" style="fill-rule:nonzero;"/>
            </g>
            <g transform="matrix(1,0,0,1,343.464,151.686)">
                <path d="M0,-0.174C0.001,-0.154 0.002,-0.133 0.004,-0.113C0.01,-0.072 0.017,-0.045 0.022,0L0,-0.174Z" style="fill-rule:nonzero;"/>
            </g>
            <g transform="matrix(1,0,0,1,208.27,167.366)">
                <path d="M0,-38.806C-2.078,-39.154 -5.921,-40.17 -12.024,-42.532C-15.977,-44.099 -18.882,-46.112 -21.968,-48.559C-11.581,-56.738 -3.922,-53.264 0.658,-41.39C0.928,-39.446 1.704,-38.522 0,-38.806M60.58,-76.422C59.58,-79.426 56.515,-84.677 53.674,-91.519C58.505,-90.741 62.47,-90.409 61.249,-91.643L60.661,-92.227C56.578,-96.35 52.325,-100.655 48.978,-104.126C47.405,-105.963 44.334,-109.023 43.578,-109.935L40.007,-94.315C40.436,-94.19 42.473,-93.195 43.286,-92.885C46.827,-79.117 53.35,-67.962 55.424,-63.201C56.348,-60.943 57.623,-58.181 58.033,-56.799C58.396,-55.931 58.307,-55.446 57.209,-54.445C55.553,-52.985 53.036,-51.817 51.395,-51.056C41.245,-46.343 27.333,-45.463 17.383,-50.59C12.904,-52.897 9.667,-56.171 6.836,-59.16C-0.101,-69.666 -14.618,-71.56 -25.755,-51.638C-26.284,-52.07 -26.824,-52.51 -27.389,-52.963C-33.336,-44.535 -39.457,-25.763 -60.396,-11.285C-88.302,8.024 -114.548,22.402 -131.074,31.916C-134.456,33.864 -142.946,37.708 -146.523,39.667C-168.727,51.809 -197.143,63.212 -204.849,66.379L-207.178,67.318C-216.647,71.129 -161.87,63.034 -145.677,56.699C-142.683,55.531 -134.98,50.57 -131.084,48.327C-116.097,39.693 -88.328,24.498 -60.407,5.126C-37.387,-10.86 -39.435,-22 -31.052,-37.102C-25.955,-32.364 -20.961,-28.923 -14.852,-26.502C-8.749,-24.137 -4.887,-23.223 1.124,-22.565C5.386,-22.07 9.169,-28.565 10.354,-37.226C11.632,-36.258 13.02,-35.351 14.555,-34.559C24.505,-29.433 38.418,-30.309 48.571,-35.025C50.208,-35.786 52.903,-37.413 55.006,-39.243C60.979,-44.576 62.383,-52.56 62.712,-53.861C63.418,-56.474 64.694,-65.452 60.58,-76.422" style="fill-rule:nonzero;"/>
            </g>
            <g transform="matrix(-0.374175,-0.927358,-0.927358,0.374175,1.38488,233.31)">
                <path d="M-1.165,-1.725C-1.166,-1.421 -1.161,-1.144 -1.167,-0.899L-1.165,0.627C-1.162,0.681 -1.165,0.734 -1.164,0.786L-1.165,-1.725Z" style="fill-rule:nonzero;"/>
            </g>
            <g transform="matrix(1,0,0,1,756.252,69.5655)">
                <path d="M0,-45.637C-13.17,-40.647 -78.743,-16.363 -95.742,-9.873C-100.779,-7.947 -102.938,-6.993 -103.293,-5.985L-105.47,0C-104.365,-1.279 -102.957,-1.963 -97.923,-3.889C-80.998,-10.387 -15.347,-34.663 -2.177,-39.653L0,-45.637Z" style="fill-rule:nonzero;"/>
            </g>
            <g transform="matrix(1,0,0,1,654.659,43.8396)">
                <path d="M0,-26.043L-7.555,-13.413C2.896,-15.517 11.632,-14.24 16.462,-12.371C14.185,-10.543 11.537,-8.753 8.42,-6.838C4.842,-4.864 2.144,-3.755 -1.265,-2.207C-5.548,-0.432 -6.184,-0.044 -8.523,0.798L-8.72,0.865C-11.263,1.759 -5.825,0.536 -0.961,0.037C2.021,-0.421 7.362,-1.124 9.348,-1.87C12.825,-3.274 17.105,-8.316 18.839,-11.232L25.278,-22.657C21.97,-25.396 10.553,-27.802 0,-26.043" style="fill-rule:nonzero;"/>
            </g>
            <g transform="matrix(-0.994179,0.107742,0.107742,0.994179,606.745,112.858)">
                <path d="M1.279,-23.728C-2.731,-19.322 -7.567,-13.895 -10.257,-11.001L1.279,0.069C3.969,-2.824 8.808,-8.252 12.818,-12.658L1.279,-23.728Z" style="fill-rule:nonzero;"/>
            </g>
            <g transform="matrix(-0.9937,0.11207,0.11207,0.9937,608.989,137.317)">
                <path d="M1.34,-23.838C-2.661,-19.366 -6.42,-15.003 -10.243,-10.945L1.34,0.075C5.163,-3.987 8.927,-8.346 12.923,-12.821L1.34,-23.838Z" style="fill-rule:nonzero;"/>
            </g>
            <g transform="matrix(1,0,0,1,630.716,67.034)">
                <path d="M0,-5.981C-2.292,-7.438 -4.402,-8.938 -7.393,-10.982C-11.906,-13.946 -18.474,-17.398 -14.516,-25.242C-12.438,-29.795 -2.388,-36.77 0.757,-30.572C2.561,-25.933 1.359,-19.993 -3.143,-12.216C-5.131,-8.657 -8.646,-4.414 -11.137,-1.657C-21.975,10.175 -26.494,12.762 -32.804,16.654C-36.459,18.639 -48.55,25.425 -53.673,27.661L-55.413,28.423C-60.81,30.789 -49.625,24.069 -46.554,21.836C-35.583,14.584 -25.74,8.659 -11.321,-5.142C-8.745,-7.593 -5.781,-11.363 -4.015,-14.372C-1.959,-19.42 -2.074,-23.25 -3.934,-25.526C-5.404,-27.182 -9.766,-26.631 -11.691,-24.189C-11.244,-21.734 -8.469,-19.668 -3.903,-17.025C-1.675,-15.842 0.901,-14.05 3.382,-12.08L0,-5.981Z" style="fill-rule:nonzero;"/>
            </g>
            <g transform="matrix(-0.399585,-0.916696,-0.916696,0.399585,575.476,94.4308)">
                <path d="M-0.868,-1.331C-0.869,-1.137 -0.869,-0.952 -0.864,-0.776L-0.868,0.371C-0.867,0.438 -0.871,0.505 -0.872,0.569L-0.868,-1.331Z" style="fill-rule:nonzero;"/>
            </g>
            <g transform="matrix(1,0,0,1,513.428,89.343)">
                <path d="M0,-64.376C16.02,-50.689 21.187,-32.537 20.392,-17.627C20.114,-13.358 19.438,-9.684 18.735,-6.815L18.337,-5.052C17.058,0 17.793,-11.901 17.845,-15.616C17.967,-27.411 13.986,-39.157 -2.033,-52.848L0,-64.376Z" style="fill-rule:nonzero;"/>
            </g>
            <g transform="matrix(-0.934782,0.355223,0.355223,0.934782,504.093,137.265)">
                <path d="M4.265,-23.23C0.981,-19.646 -3.975,-14.354 -7.198,-10.361L4.265,0.783C7.488,-3.21 12.444,-8.502 15.729,-12.083L4.265,-23.23Z" style="fill-rule:nonzero;"/>
            </g>
            <g transform="matrix(1,0,0,1,535.864,237.881)">
                <path d="M0,-36.507C-13.169,-31.517 -55.894,-15.45 -71.86,-9.355C-77.058,-7.366 -79.05,-6.472 -79.408,-5.466L-81.396,0C-80.295,-1.282 -79.046,-1.9 -73.849,-3.892C-57.956,-9.99 -15.158,-26.054 -1.988,-31.044L0,-36.507Z" style="fill-rule:nonzero;"/>
            </g>
            <g transform="matrix(1,0,0,1,411.407,100.58)">
                <path d="M0,-26.044L-7.555,-13.414C2.896,-15.518 11.632,-14.241 16.462,-12.372C14.185,-10.544 11.537,-8.754 8.42,-6.839C4.842,-4.865 2.144,-3.756 -1.268,-2.208C-5.548,-0.433 -6.184,-0.045 -8.523,0.797L-8.719,0.864C-11.266,1.759 -5.829,0.535 -0.961,0.036C2.021,-0.422 7.362,-1.125 9.348,-1.871C12.826,-3.276 17.105,-8.317 18.839,-11.233L25.274,-22.658C21.97,-25.397 10.553,-27.803 0,-26.044" style="fill-rule:nonzero;"/>
            </g>
            <g transform="matrix(1,0,0,1,352.39,43.1706)">
                <path d="M0,-35.583C-13.169,-30.593 -52.478,-15.75 -68.294,-9.713C-73.513,-7.717 -75.487,-6.834 -75.842,-5.825L-77.963,0C-76.858,-1.279 -75.635,-1.889 -70.416,-3.888C-54.677,-9.928 -15.291,-24.768 -2.122,-29.758L0,-35.583Z" style="fill-rule:nonzero;"/>
            </g>
            <g transform="matrix(-0.37667,-0.926348,-0.926348,0.37667,290.902,187.754)">
                <path d="M-38.969,-57.913C-38.543,-43.343 -35.566,9.165 -35.028,23.745L-38.969,26.222C-39.508,11.638 -42.48,-40.868 -42.909,-55.436L-38.969,-57.913Z" style="fill-rule:nonzero;"/>
            </g>
            <g transform="matrix(-0.944299,0.32909,0.32909,0.944299,256.922,166.64)">
                <path d="M4.895,-23.727C1.513,-20.234 -3.563,-13.854 -6.896,-9.95L4.895,0.522C8.229,-3.379 12.662,-8.777 16.044,-12.268L4.895,-23.727Z" style="fill-rule:nonzero;"/>
            </g>
            <g transform="matrix(-0.94291,0.333046,0.333046,0.94291,280.026,162.651)">
                <path d="M3.282,-23.889C-0.082,-20.384 -4.75,-14.431 -8.066,-10.516L3.282,0.85C6.599,-3.066 11.89,-9.83 15.258,-13.333L3.282,-23.889Z" style="fill-rule:nonzero;"/>
            </g>
            <g transform="matrix(1,0,0,1,215.37,55.3133)">
                <path d="M0,-25.567L-7.555,-12.937C2.998,-15.061 13.877,-14.049 19.321,-12.247C17.261,-10.684 14.906,-9.241 12.157,-7.851C8.25,-5.929 4.335,-4.126 -1.009,-2.122C-5.326,-0.429 -6.517,-0.045 -8.852,0.794L-9.048,0.861C-11.595,1.759 -5.977,0.613 -1.146,0.029C4.288,-0.474 10.386,-1.147 12.367,-1.841C15.761,-3.224 20.019,-8.276 21.752,-11.192L28.191,-22.621C24.882,-25.357 10.553,-27.326 0,-25.567" style="fill-rule:nonzero;"/>
            </g>
            <g transform="matrix(1,0,0,1,158.094,123.322)">
                <path d="M0,-103.016C1.434,-104.099 3.538,-103.496 6.809,-100.263L8.505,-104.406C5.038,-109.724 2.517,-110.767 0.625,-109.207C-3.703,-105.636 -4.525,-89.01 -6.613,-78.539C-7.642,-88.468 -12.29,-104.453 -22.461,-105.714C-22.702,-105.585 -22.887,-105.404 -23.008,-105.178L-25.304,-100.902C-26.194,-99.205 -24.812,-95.55 -18.577,-94.36L-17.1,-96.437C-12.85,-91.262 -9.859,-82.993 -8.004,-74.263C-10.083,-73.936 -11.927,-72.298 -13.18,-68.767C-13.72,-67.466 -14.038,-66.169 -14.312,-65.138L-14.359,-64.898C-14.962,-62.174 -14.075,-63.97 -12.179,-66.258C-9.414,-69.272 -5.758,-67.247 -2.501,-64.583C-12.021,-63.111 -15.808,-59.506 -17.102,-55.165C-19.094,-49.521 -15.387,-41.198 -12.855,-27.245C-10.704,-17.062 -9.935,-8.298 -9.621,-3.593C-9.366,2.997 -10.124,7.751 -9.214,4.257L-8.952,3.308C-8.279,0.158 -7.921,-2.961 -7.921,-6.043C-7.547,-12.431 -9.192,-25.219 -10.449,-30.246C-13.121,-43.693 -16.271,-52.486 -15.014,-54.39C-12.378,-57.21 -5.548,-58.866 3.057,-59.738L4.31,-65.219C1.328,-70.054 -3.162,-74.214 -7.05,-74.32L-6.387,-74.866C-3.216,-83.903 -3.903,-100.078 0,-103.016" style="fill-rule:nonzero;"/>
            </g>
            <g transform="matrix(1,0,0,1,181.114,236.081)">
                <path d="M0,-61.323C-3.475,-56.139 -4.231,-41.348 -6.096,-31.718C-7.185,-41.641 -11.925,-57.595 -22.1,-58.799C-22.244,-58.721 -22.347,-58.617 -22.417,-58.485L-24.602,-54.301C-25.497,-52.56 -21.826,-46.838 -15.092,-45.596L-14.482,-46.464C-14.347,-46.246 -14.213,-46.028 -14.082,-45.803C-14.681,-44.233 -16.256,-40.564 -19.157,-36.77C-25.312,-28.527 -35.361,-20.61 -40.636,-16.988C-48.938,-11.103 -56.053,-7.529 -61.948,-4.572C-66.416,-2.336 -76.119,2.905 -72.168,1.574L-71.317,1.29C-62.288,-1.866 -57.886,-3.208 -52.582,-5.219C-45.574,-7.869 -40.503,-10.549 -33.92,-15.894C-30.228,-19.057 -21.94,-26.79 -17.527,-35.04C-15.007,-39.568 -14.607,-43.212 -14.264,-44.579L-14.068,-45.607C-14.057,-45.65 -14.047,-45.685 -14.037,-45.725C-11.035,-40.592 -8.817,-33.833 -7.33,-26.812L-5.848,-28.047C-2.938,-36.492 -3.412,-51.247 -0.34,-55.476C1.079,-57.449 3.319,-57.313 7.2,-53.517L8.875,-57.671C4.734,-63.933 1.966,-64.228 0,-61.323" style="fill-rule:nonzero;"/>
            </g>
            <g transform="matrix(1,0,0,1,600.27,70.0238)">
                <path d="M0,-24.528C-33.137,-10.838 -79.975,-8.723 -97.468,-24.872L-99.557,-19.135C-93.843,-11.876 -91.362,-7.223 -90.379,-3.342C-89.791,-1.021 -90.172,3.907 -89.399,1.644L-88.764,0.299C-87.61,-2.296 -86.949,-5.441 -87.333,-8.007C-87.522,-9.297 -87.936,-10.589 -88.538,-11.924C-67.49,-2.608 -31.845,-4.514 -1.586,-17.084C5.544,-20.045 6.412,-18.056 4.08,-13.591C2.657,-10.886 -0.022,-7.319 -3.438,-4.177C-4.901,-2.795 -13.613,4.062 -8.934,1.703L-8.024,1.242C-5.533,0.058 -3.534,-1.96 -1.542,-3.552C2.287,-6.857 6.412,-12.53 7.725,-16.204C9.854,-23.175 9.381,-28.59 0,-24.528" style="fill-rule:nonzero;"/>
            </g>
            <g transform="matrix(-0.803636,-0.595121,-0.595121,0.803636,373.574,90.493)">
                <path d="M-0.291,-0.947C-0.301,-1.13 -0.307,-1.309 -0.312,-1.482L-0.291,0.631C-0.289,0.567 -0.288,0.485 -0.284,0.378L-0.291,-0.947Z" style="fill-rule:nonzero;"/>
            </g>
            <g transform="matrix(1,0,0,1,367.63,102.568)">
                <path d="M0,-5.759C-5.756,-8.549 -15.416,-11.142 -16.368,-14.801C-12.052,-17.082 -5.393,-17.159 -1.438,-16.788C1.619,-16.374 4.081,-15.665 5.13,-14.19C6.225,-12.597 5.371,-10.83 5.803,-11.396L7.078,-13.081C8.416,-14.848 8.46,-16.423 7.925,-17.236C6.956,-18.825 4.081,-19.527 1.116,-19.904C-1.408,-20.289 -11.82,-20.137 -16.44,-15.531L-18.688,-13.114C-22.325,-9.447 -9.348,-5.053 -3.563,-2.743C2.839,0.103 11.347,3.315 9.61,8.371C8.701,8.686 6.937,7.643 -4.498,2.31C-11.255,-0.891 -21.131,-4.772 -25.87,-10.083C-29.765,-14.641 -28.312,-18.234 -28.896,-15.842L-29.2,-14.5C-30.002,-11.199 -29.706,-8.716 -28.202,-6.609C-25.082,-1.63 -17.028,0.746 -8.922,4.942C6.091,11.281 6.025,14.53 10.881,8.83C16.983,2.417 8.032,-2.428 0,-5.759" style="fill-rule:nonzero;"/>
            </g>
        </g>
    </g>
</svg>
